<svg version="1" xmlns="http://www.w3.org/2000/svg" width="346.667" height="346.667" viewBox="0 0 260.000000 260.000000"><path d="M22 135.5V211h21v-35.5c0-19.5.3-35.5.6-35.5 1 0 9.8 6.3 17.3 12.3 17 13.8 38 36.4 49 52.5l4.2 6.2h25l-3.7-5.8c-15.4-24.4-44.1-54.9-69.3-73.8-.2-.2 11.8-12.8 26.6-28.1C126.3 68.6 133 61.5 133 60.7c0-.4-5.5-.7-12.3-.7h-12.3l-7.9 8.7C88.8 81.6 44.9 126 43.9 126c-.5 0-.9-14.9-.9-33V60H22v75.5zM159 136.5v75.6l10.3-.3 10.2-.3.3-34.8.2-34.7h62v-18h-62V79h70V61h-91v75.5z"/></svg>